<svg xmlns="http://www.w3.org/2000/svg" viewBox="0 0 20 16"><rect width="20" height="16" fill="#221024"/><g fill="#FCF3E3"><rect x="13" y="0" width="4" height="1"/><rect x="12" y="1" width="6" height="1"/><rect x="12" y="2" width="2" height="1"/><rect x="15" y="2" width="3" height="1"/><rect x="12" y="3" width="6" height="1"/><rect x="11" y="4" width="7" height="1"/><rect x="10" y="5" width="8" height="1"/><rect x="9" y="6" width="9" height="1"/><rect x="8" y="7" width="4" height="1"/><rect x="13" y="7" width="5" height="1"/><rect x="7" y="8" width="4" height="1"/><rect x="13" y="8" width="5" height="1"/><rect x="5" y="9" width="5" height="1"/><rect x="12" y="9" width="6" height="1"/><rect x="3" y="10" width="7" height="1"/><rect x="12" y="10" width="7" height="1"/><rect x="0" y="11" width="9" height="1"/><rect x="11" y="11" width="8" height="1"/><rect x="1" y="12" width="17" height="1"/><rect x="4" y="13" width="4" height="1"/><rect x="13" y="13" width="4" height="1"/><rect x="4" y="14" width="1" height="1"/><rect x="16" y="14" width="1" height="1"/><rect x="3" y="15" width="3" height="1"/><rect x="15" y="15" width="3" height="1"/></g><g fill="#FF5535"><rect x="18" y="3" width="2" height="1"/><rect x="18" y="4" width="2" height="1"/></g></svg>
